<?xml version="1.0" encoding="utf-8"?>
<!-- Generator: Adobe Illustrator 27.9.0, SVG Export Plug-In . SVG Version: 6.00 Build 0)  -->
<svg version="1.1" id="Capa_1" xmlns="http://www.w3.org/2000/svg" xmlns:xlink="http://www.w3.org/1999/xlink" x="0px" y="0px"
	 viewBox="0 0 24 24" style="enable-background:new 0 0 24 24;" xml:space="preserve">
<style type="text/css">
	.st0{fill:none;}
	.st1{clip-path:url(#SVGID_00000168094691065638084390000005805249712761116583_);}
	.st2{fill:#41BA77;}
</style>
<g id="Plot" transform="translate(-34 -333)">
	<path id="Rectangle_1056" class="st0" d="M39,333h14c2.8,0,5,2.2,5,5v14c0,2.8-2.2,5-5,5H39c-2.8,0-5-2.2-5-5v-14
		C34,335.2,36.2,333,39,333z"/>
	<g>
		<g>
			<defs>
				<rect id="SVGID_1_" x="36" y="335" width="20" height="20"/>
			</defs>
			<clipPath id="SVGID_00000165951209574402988570000017570370250001727879_">
				<use xlink:href="#SVGID_1_"  style="overflow:visible;"/>
			</clipPath>
			<g id="Mask_Group_52" style="clip-path:url(#SVGID_00000165951209574402988570000017570370250001727879_);">
				<g id="_04" transform="translate(-451.128 940.14)">
					<path id="Path_11327" class="st2" d="M487-585c0-0.5,0.1-1,0.3-1.4c1-1.9,1.9-3.9,2.9-5.8c0-0.1,0.2-0.2,0.3-0.2
						c1.1,0,2.2,0,3.3,0c0-0.1-0.1-0.1-0.1-0.2c-0.7-1.2-1.4-2.3-2.1-3.5c-1.2-2.2-0.8-5,0.9-6.8c2.2-2.5,6.1-2.6,8.5-0.4
						c2.1,1.9,2.6,5.1,1.1,7.6c-0.6,1.1-1.2,2.1-1.9,3.2c0,0.1-0.1,0.1-0.1,0.2h3.2c0.2,0,0.3,0.1,0.4,0.2c1,2.1,2.1,4.2,3.1,6.2
						c0,0.1,0.1,0.1,0.1,0.2v0.8L487-585z M497-589.4c0.1-0.1,0.1-0.2,0.1-0.2l4-6.8c1.4-2.3,0.7-5.3-1.6-6.7s-5.3-0.7-6.7,1.6
						c-1,1.6-1,3.5,0,5.1c1.1,1.9,2.3,3.8,3.4,5.8L497-589.4z M505.5-586.2L505.5-586.2c-0.8-1.7-1.7-3.3-2.5-5
						c0-0.1-0.1-0.1-0.2-0.1h-3.1c-0.1,0-0.3,0.1-0.3,0.2c-0.6,1-1.2,1.9-1.7,2.9c-0.1,0.4-0.5,0.6-0.9,0.5c-0.1,0-0.2-0.1-0.3-0.2
						c-0.6-1.1-1.3-2.1-1.9-3.2c-0.1-0.1-0.2-0.2-0.3-0.2c-1,0-2.1,0-3.1,0c-0.1,0-0.3,0.1-0.3,0.2c-0.8,1.6-1.5,3.1-2.3,4.7
						c0,0.1-0.1,0.1-0.1,0.2L505.5-586.2z"/>
					<path id="Path_11328" class="st2" d="M497-601.1c1.2,0,2.2,1,2.2,2.2s-1,2.2-2.2,2.2s-2.2-1-2.2-2.2l0,0
						C494.9-600.1,495.8-601.1,497-601.1L497-601.1z M497-598c0.5,0,1-0.4,1-1c0-0.5-0.4-1-1-1c-0.5,0-1,0.4-1,1S496.5-598,497-598z
						"/>
				</g>
			</g>
		</g>
	</g>
</g>
</svg>
